<svg width="150" height="30" viewBox="0 0 150 30" fill="none" xmlns="http://www.w3.org/2000/svg">
<path d="M24.8572 7.88588V28.1145C24.8572 28.5002 24.6 28.7573 24.2143 28.7573H19.4143C19.0286 28.7573 18.8143 28.5002 18.7714 28.1145L18.6429 26.5287C17.1429 28.2002 15.1286 29.3573 12.4714 29.3573C6.51429 29.3573 2.10001 24.343 2.10001 18.0859C2.10001 11.8287 6.51429 6.81445 12.4714 6.81445C15 6.81445 17.1 8.01445 18.6429 9.7716L18.7714 7.9716C18.8143 7.58588 19.0286 7.32874 19.4143 7.32874H24.2143C24.6 7.24302 24.8572 7.50017 24.8572 7.88588ZM18.1286 18.0002C18.1286 15.1287 16.0714 12.7287 13.2857 12.7287C10.4571 12.7287 8.40001 15.0002 8.40001 18.0002C8.40001 21.043 10.4571 23.3145 13.2857 23.3145C16.0714 23.3145 18.1286 20.8716 18.1286 18.0002Z" fill="#322F2E"/>
<path d="M44.0143 8.82876L42.5571 12.6002C42.3857 13.1145 42 13.2002 41.4857 13.0716C41.0571 12.943 40.5 12.7288 39.6857 12.7288C36.9429 12.7288 35.3143 14.743 35.3143 17.4002V28.1145C35.3143 28.5002 35.0571 28.7573 34.6714 28.7573H29.4C29.0143 28.7573 28.7571 28.5002 28.7571 28.1145V7.8859C28.7571 7.50019 29.0143 7.24305 29.4 7.24305H34.4571C34.8429 7.24305 35.0571 7.50019 35.1 7.8859L35.2714 10.3716C36.3857 8.27162 38.1857 6.72876 40.8 6.72876C42.0857 6.72876 43.1571 7.24305 43.8 7.84305C44.1429 8.1859 44.1429 8.52876 44.0143 8.82876Z" fill="#322F2E"/>
<path d="M59.7857 21.5573C60.1286 21.2573 60.4286 21.2573 60.7714 21.5573L63.9429 24.6002C64.2 24.8573 64.2429 25.2002 63.9857 25.543C61.9714 27.8573 58.9714 29.3573 55.5429 29.3573C49.3286 29.3573 44.5286 24.3859 44.5286 18.0859C44.5286 11.7859 49.3714 6.81445 55.5429 6.81445C58.8857 6.81445 61.8429 8.31445 63.8571 10.6287C64.1143 10.9287 64.0714 11.2716 63.8143 11.5716L60.6 14.5716C60.3 14.8716 60 14.8287 59.6572 14.5287C58.4143 13.4573 57.1714 12.8573 55.7143 12.8573C52.8429 12.8573 50.8286 15.0859 50.8286 18.043C50.8286 21.0002 52.8429 23.2287 55.7143 23.2287C57.2572 23.2287 58.5429 22.6287 59.7857 21.5573Z" fill="#322F2E"/>
<path d="M88.5429 7.88588V28.1145C88.5429 28.5002 88.2857 28.7573 87.9 28.7573H83.1C82.7143 28.7573 82.5 28.5002 82.4572 28.1145L82.3286 26.5287C80.8286 28.2002 78.8143 29.3573 76.1572 29.3573C70.2 29.3573 65.7857 24.343 65.7857 18.0859C65.7857 11.8287 70.2 6.81445 76.1572 6.81445C78.6857 6.81445 80.7857 8.01445 82.3286 9.7716L82.4572 7.9716C82.5 7.58588 82.7143 7.32874 83.1 7.32874H87.9C88.2857 7.24302 88.5429 7.50017 88.5429 7.88588ZM81.8143 18.0002C81.8143 15.1287 79.7572 12.7287 76.9714 12.7287C74.1429 12.7287 72.0857 15.0002 72.0857 18.0002C72.0857 21.043 74.1429 23.3145 76.9714 23.3145C79.7572 23.3145 81.8143 20.8716 81.8143 18.0002Z" fill="#322F2E"/>
<path d="M107.7 8.82876L106.243 12.6002C106.071 13.1145 105.686 13.2002 105.129 13.0716C104.7 12.943 104.143 12.7288 103.329 12.7288C100.586 12.7288 98.9572 14.743 98.9572 17.4002V28.1145C98.9572 28.5002 98.7 28.7573 98.3143 28.7573H93.0429C92.6572 28.7573 92.4 28.5002 92.4 28.1145V7.8859C92.4 7.50019 92.6572 7.24305 93.0429 7.24305H98.1C98.4857 7.24305 98.7 7.50019 98.7429 7.8859L98.9143 10.3716C100.029 8.27162 101.829 6.72876 104.443 6.72876C105.729 6.72876 106.8 7.24305 107.443 7.84305C107.829 8.1859 107.829 8.52876 107.7 8.82876Z" fill="#322F2E"/>
<path d="M123.3 7.88579V11.8715C123.3 12.2572 123.043 12.5144 122.657 12.5144H119.571V28.0715C119.571 28.4572 119.314 28.7144 118.929 28.7144H113.657C113.271 28.7144 113.014 28.4572 113.014 28.0715V12.5572H109.929C109.543 12.5572 109.286 12.3001 109.286 11.9144V7.88579C109.286 7.50008 109.543 7.24293 109.929 7.24293H113.014V1.32865C113.014 0.942934 113.271 0.685791 113.657 0.685791H118.929C119.314 0.685791 119.571 0.942934 119.571 1.32865V7.24293H122.657C123.043 7.24293 123.3 7.50008 123.3 7.88579Z" fill="#322F2E"/>
<path d="M147.9 7.88588V28.1145C147.9 28.5002 147.643 28.7573 147.257 28.7573H142.457C142.071 28.7573 141.857 28.5002 141.814 28.1145L141.686 26.5287C140.186 28.2002 138.171 29.3573 135.514 29.3573C129.557 29.3573 125.143 24.343 125.143 18.0859C125.143 11.8287 129.557 6.81445 135.514 6.81445C138.043 6.81445 140.143 8.01445 141.686 9.7716L141.814 7.9716C141.857 7.58588 142.071 7.32874 142.457 7.32874H147.257C147.643 7.24302 147.9 7.50017 147.9 7.88588ZM141.171 18.0002C141.171 15.1287 139.114 12.7287 136.329 12.7287C133.5 12.7287 131.443 15.0002 131.443 18.0002C131.443 21.043 133.5 23.3145 136.329 23.3145C139.114 23.3145 141.171 20.8716 141.171 18.0002Z" fill="#322F2E"/>
</svg>
